<?xml version="1.0" encoding="UTF-8"?><svg xmlns="http://www.w3.org/2000/svg" xmlns:xlink="http://www.w3.org/1999/xlink" viewBox="0 0 610 248"><defs><style>.uuid-c0f1f403-7efa-4589-aa8f-940fcc6539af{fill:none;}.uuid-1b0e6386-041c-44df-83f0-3de0adb7714c{fill:url(#uuid-5ba9faee-d5a0-4bb8-bb0d-70e06758f2e0);}.uuid-dc602110-a525-42a0-abe2-3bcc8046af96{fill:#fff;}.uuid-a3f1d691-91e1-4d75-acfb-214b0df844b1{fill:#fcffde;}.uuid-d334e99c-c840-4ca8-b8f3-7abc835d3d23{fill:url(#uuid-2a6e0fd9-8d3b-40a9-bb73-6293ab2f3645);}.uuid-8678838d-fcef-4174-b99b-373631c0fae5{fill:url(#uuid-71202312-03a6-4a66-9915-dbc41662aedd);}.uuid-721a3e8f-ca18-4588-bbb0-75729cb1c72b{fill:#0c7c8e;mix-blend-mode:multiply;opacity:.28;}.uuid-72442eb4-d5e1-49b8-89a1-824aa1ce11f6{fill:url(#uuid-55332fcf-c393-4d75-aa4f-e123a41f8c9d);}.uuid-a82db270-d919-481d-8d81-327bc937aeba{fill:url(#uuid-bb37c3e7-f1cc-49b9-9e82-f36901740938);}.uuid-5281ff37-9563-4ebe-aba6-458fa3c10c0c{fill:url(#uuid-e8234aa6-2878-4be4-810e-05d14e343a5d);}.uuid-794c6eaa-327b-4405-9692-5cb45c2db141{isolation:isolate;}.uuid-af21d74c-5773-4f11-854a-76c090893312{fill:url(#uuid-9c4a999d-861c-4f53-8dac-669e6b17db09);}</style><linearGradient id="uuid-bb37c3e7-f1cc-49b9-9e82-f36901740938" x1="305" y1="249" x2="305" y2="-5" gradientTransform="matrix(1, 0, 0, 1, 0, 0)" gradientUnits="userSpaceOnUse"><stop offset="0" stop-color="#e7ffff"/><stop offset=".11" stop-color="#e1fcfd"/><stop offset=".24" stop-color="#d3f5f9"/><stop offset=".38" stop-color="#bbe9f2"/><stop offset=".53" stop-color="#99d9e8"/><stop offset=".69" stop-color="#6ec3dc"/><stop offset=".85" stop-color="#3aaacd"/><stop offset="1" stop-color="#008ebd"/></linearGradient><linearGradient id="uuid-2a6e0fd9-8d3b-40a9-bb73-6293ab2f3645" x1="233.75" y1="260.5" x2="233.75" y2="232.5" gradientTransform="matrix(1, 0, 0, 1, 0, 0)" gradientUnits="userSpaceOnUse"><stop offset="0" stop-color="#3166c8"/><stop offset=".79" stop-color="#77daff"/></linearGradient><linearGradient id="uuid-71202312-03a6-4a66-9915-dbc41662aedd" x1="-27.98" y1="238.25" x2="265.5" y2="238.25" xlink:href="#uuid-2a6e0fd9-8d3b-40a9-bb73-6293ab2f3645"/><linearGradient id="uuid-e8234aa6-2878-4be4-810e-05d14e343a5d" x1="-86.98" y1="238.25" x2="206.5" y2="238.25" xlink:href="#uuid-2a6e0fd9-8d3b-40a9-bb73-6293ab2f3645"/><linearGradient id="uuid-5ba9faee-d5a0-4bb8-bb0d-70e06758f2e0" x1="7.02" y1="234.96" x2="371.17" y2="234.96" xlink:href="#uuid-2a6e0fd9-8d3b-40a9-bb73-6293ab2f3645"/><linearGradient id="uuid-55332fcf-c393-4d75-aa4f-e123a41f8c9d" x1="67.68" y1="230.06" x2="442.61" y2="230.06" gradientTransform="matrix(1, 0, 0, 1, 0, 0)" gradientUnits="userSpaceOnUse"><stop offset="0" stop-color="#317dc8"/><stop offset="1" stop-color="#3ed5d9"/></linearGradient><linearGradient id="uuid-9c4a999d-861c-4f53-8dac-669e6b17db09" x1="415.33" y1="278.87" x2="415.33" y2="166.03" gradientTransform="matrix(1, 0, 0, 1, 0, 0)" gradientUnits="userSpaceOnUse"><stop offset="0" stop-color="#317dc8"/><stop offset=".59" stop-color="#00b4b6"/><stop offset="1" stop-color="#3ebeaa"/></linearGradient></defs><g class="uuid-794c6eaa-327b-4405-9692-5cb45c2db141"><g id="uuid-64995a9f-e990-4762-a105-4ed299011590"><g id="uuid-ed9ec53e-9de7-49a8-81f2-1f9b3125c0a8"><g><rect class="uuid-a82db270-d919-481d-8d81-327bc937aeba" width="610" height="248"/><g><polygon class="uuid-c0f1f403-7efa-4589-aa8f-940fcc6539af" points="0 0 0 232.5 467.5 232.5 467.5 248 610 248 610 0 0 0"/><rect class="uuid-d334e99c-c840-4ca8-b8f3-7abc835d3d23" y="232.5" width="467.5" height="15.5"/></g><rect class="uuid-dc602110-a525-42a0-abe2-3bcc8046af96" x="444.77" y="146.71" width=".69" height="26.9" transform="translate(243.62 -267.84) rotate(45)"/><path class="uuid-dc602110-a525-42a0-abe2-3bcc8046af96" d="M453.66,149.68c-2.2-2.2-13.36-1.62-20.24,5.61-2.9,3.05-4.39,7.32-4.15,8.05,.49-.49,2.68-1.38,4.63-.73,3.66,1.22,6.1,7.56,6.83,9.27,.49-2.44,1.51-5.83,5.37-12.68,3.65-6.51,6.1-9.02,7.56-9.51Z"/><path class="uuid-a3f1d691-91e1-4d75-acfb-214b0df844b1" d="M445.39,178.48c-5.85-4.88-14.63-14.63-17.32-17.8-.73-.86-1.17,1.77-.98,3.41,.13,1.07,1.01,2.29,2.25,3.64,.66-.1,1.38-.17,2.15-.23,.54,.7,2.26,4,3.63,6s2.75,3.08,3.67,4.74c.36,.64,3.65,2.11,4.63,2.2,1.35,.12,2.94-1.12,1.95-1.95Z"/><g><path class="uuid-c0f1f403-7efa-4589-aa8f-940fcc6539af" d="M0,0V248H48.89c2.04-.3,4.09-.6,6.16-.93,31.18-4.96,55.44-12.19,73.01-18.57,7.16,7.38,22.91,13.2,52.49,17.89,3.63,.58,7.34,1.11,11.07,1.61h418.37V0H0Z"/><path class="uuid-8678838d-fcef-4174-b99b-373631c0fae5" d="M128.07,228.5c-17.57,6.38-41.83,13.61-73.01,18.57-2.07,.33-4.12,.64-6.16,.93H191.63c-3.73-.5-7.44-1.03-11.07-1.61-29.59-4.7-45.33-10.51-52.49-17.89Z"/></g><g><path class="uuid-c0f1f403-7efa-4589-aa8f-940fcc6539af" d="M0,0V246.41c29.28-4.93,52.25-11.81,69.07-17.91,7.16,7.38,22.91,13.2,52.49,17.89,3.63,.58,7.34,1.11,11.07,1.61h477.37V0H0Z"/><path class="uuid-5281ff37-9563-4ebe-aba6-458fa3c10c0c" d="M69.07,228.5c-16.82,6.1-39.78,12.99-69.07,17.91v1.59H132.63c-3.73-.5-7.44-1.03-11.07-1.61-29.59-4.7-45.33-10.51-52.49-17.89Z"/></g><g><path class="uuid-c0f1f403-7efa-4589-aa8f-940fcc6539af" d="M0,0V248H120.69c32.87-7.35,59.03-17.11,78.64-25.91,.75-.34,1.64-.16,2.18,.47,8.73,10.31,26.53,18.61,58.36,25.44h350.14V0H0Z"/><path class="uuid-1b0e6386-041c-44df-83f0-3de0adb7714c" d="M201.5,222.56c-.53-.63-1.42-.81-2.18-.47-19.61,8.8-45.78,18.55-78.64,25.91h139.18c-31.83-6.82-49.63-15.13-58.36-25.44Z"/></g><g><path class="uuid-c0f1f403-7efa-4589-aa8f-940fcc6539af" d="M0,0V248H208.26c23.16-11.14,42.36-23.89,57.67-35.65,.57-.44,1.39-.23,1.7,.42,6.55,13.58,18.27,25.2,37.25,35.23h305.12V0H0Z"/><path class="uuid-72442eb4-d5e1-49b8-89a1-824aa1ce11f6" d="M267.63,212.77c-.31-.65-1.13-.86-1.7-.42-15.31,11.76-34.5,24.51-57.67,35.65h96.62c-18.99-10.03-30.71-21.65-37.25-35.23Z"/></g><g><path class="uuid-c0f1f403-7efa-4589-aa8f-940fcc6539af" d="M430.15,166.43c.96-.73,2.33-.42,2.88,.65,2.06,4.1,5.02,9.45,9.08,15.34,23.08,33.43,57.58,49.08,99.89,62.58,3.23,1.03,6.45,2.03,9.66,3h58.34V0H0V248H279c64.26-21.79,114.49-53.42,151.15-81.57Z"/><path class="uuid-af21d74c-5773-4f11-854a-76c090893312" d="M442.11,182.42c-4.06-5.88-7.03-11.24-9.08-15.34-.54-1.08-1.92-1.39-2.88-.65-36.66,28.15-86.89,59.78-151.15,81.57h272.66c-3.21-.97-6.43-1.97-9.66-3-42.31-13.5-76.81-29.15-99.89-62.58Z"/></g><g><path class="uuid-c0f1f403-7efa-4589-aa8f-940fcc6539af" d="M408.5,229.05c-.5-8.5,27.61-16.27,27-20-.7-4.25-12.64-6.61-14-13-1.05-4.93,9.31-10.36,8-13-.93-1.87-5.93-6.03,1.2-15.82,.57-.79,1.78-.67,2.22,.2,2.06,4.12,5.06,9.56,9.19,15.54,23.08,33.43,57.58,49.08,99.89,62.58,2.63,.84,5.25,1.65,7.87,2.45h60.13V0H0V248H416.06c4.39-6.2-7.46-17.24-7.56-18.95Z"/><path class="uuid-721a3e8f-ca18-4588-bbb0-75729cb1c72b" d="M442.11,182.97c-4.13-5.98-7.13-11.42-9.19-15.54-.44-.87-1.64-.98-2.22-.2-7.14,9.79-2.13,13.96-1.2,15.82,1.31,2.64-9.05,8.07-8,13,1.36,6.39,13.3,8.75,14,13,.61,3.73-27.5,11.5-27,20,.1,1.71,11.95,12.75,7.56,18.95h133.8c-2.62-.8-5.24-1.61-7.87-2.45-42.31-13.5-76.81-29.15-99.89-62.58Z"/></g></g></g></g></g></svg>